<svg xmlns="http://www.w3.org/2000/svg" version="1.1" viewBox="-5.0 -10.0 110.0 135.0">
 <path d="m29.934 32.27c0.48438 2.4258 2.6328 4.1875 5.1055 4.1875h29.918c2.4727 0 4.6211-1.7617 5.1055-4.1875l2.8477-14.23c0.41406-2.0703-0.45703-4.1719-2.2148-5.3477-1.7578-1.1797-4.0234-1.1758-5.7812-0.003906l-5.7188 3.8086-4.8672-7.3008c-1.9336-2.9062-6.7344-2.9062-8.668 0l-4.8672 7.3008-5.7148-3.8086c-1.7617-1.1758-4.0273-1.1719-5.7891 0.007812-1.7539 1.1758-2.6211 3.2773-2.207 5.3477l2.8438 14.227zm10-8.8398c1.4375 0.95312 3.375 0.57031 4.332-0.86719l5.7344-8.5977 5.7344 8.5977c0.95703 1.4375 2.8984 1.8242 4.332 0.86719l6.2227-4.1445-2.1836 10.922h-28.207l-2.1836-10.922 6.2227 4.1445zm43.398 40.109h-16.668c-0.35547 0-0.69922 0.054688-1.043 0.10547v-9.4805c0-4.0195-3.2695-7.293-7.293-7.293h-16.668c-4.0195 0-7.293 3.2695-7.293 7.293v1.1484c-0.34375-0.050781-0.68359-0.10547-1.043-0.10547h-16.668c-4.0195 0-7.293 3.2695-7.293 7.293v25c0 4.0195 3.2695 7.293 7.293 7.293h66.668c4.0195 0 7.293-3.2695 7.293-7.293v-16.668c0-4.0195-3.2695-7.293-7.293-7.293zm-67.707 23.961v-25c0-0.57422 0.46875-1.043 1.043-1.043h16.668c0.57422 0 1.043 0.46875 1.043 1.043v26.043h-17.707c-0.57422 0-1.043-0.46875-1.043-1.043zm25-25v-8.332c0-0.57422 0.46875-1.043 1.043-1.043h16.668c0.57422 0 1.043 0.46875 1.043 1.043v34.375h-18.75v-26.043zm43.75 25c0 0.57422-0.46875 1.043-1.043 1.043h-17.707v-17.707c0-0.57422 0.46875-1.043 1.043-1.043h16.668c0.57422 0 1.043 0.46875 1.043 1.043v16.668z"/>
</svg>