<?xml version="1.0" standalone="no"?>
<!DOCTYPE svg PUBLIC "-//W3C//DTD SVG 20010904//EN"
 "http://www.w3.org/TR/2001/REC-SVG-20010904/DTD/svg10.dtd">
<svg version="1.0" xmlns="http://www.w3.org/2000/svg"
 width="426.000000pt" height="441.000000pt" viewBox="0 0 426.000000 441.000000"
 preserveAspectRatio="xMidYMid meet">

<g transform="translate(0.000000,441.000000) scale(0.100000,-0.100000)"
fill="#000000" stroke="none">
<path d="M1940 3944 c-193 -32 -285 -53 -388 -86 -548 -180 -983 -625 -1156
-1183 -59 -191 -70 -272 -70 -525 0 -208 3 -247 23 -340 81 -371 225 -646 476
-909 236 -247 527 -413 878 -501 401 -101 836 -51 1218 140 295 148 551 381
726 661 64 102 137 256 168 349 15 47 33 103 41 125 13 39 22 84 50 260 38
241 -2 577 -98 835 -35 94 -134 292 -180 360 -112 165 -199 264 -332 378 -248
213 -507 341 -826 408 -104 21 -158 26 -315 29 -104 2 -201 2 -215 -1z m385
-248 c143 -23 227 -44 332 -81 423 -154 774 -507 929 -937 160 -442 105 -962
-144 -1353 -118 -185 -287 -358 -468 -478 -163 -107 -302 -167 -505 -218 -104
-25 -151 -31 -290 -36 -179 -6 -266 2 -432 42 -616 149 -1096 681 -1173 1300
-56 448 61 864 338 1203 151 185 324 319 548 426 86 41 238 96 264 96 10 0 46
7 79 16 136 35 369 44 522 20z"/>
<path d="M1838 2893 c-154 -153 -281 -288 -284 -300 -11 -40 4 -73 42 -90 33
-16 37 -16 68 1 18 10 113 98 211 197 98 98 182 179 186 179 5 0 9 -296 9
-664 0 -656 0 -664 21 -690 29 -37 89 -37 118 0 21 26 21 34 21 690 0 525 3
664 13 664 6 0 97 -86 200 -190 104 -105 199 -193 212 -196 53 -13 106 43 91
99 -3 12 -130 147 -284 300 -255 254 -281 277 -312 277 -31 0 -57 -23 -312
-277z"/>
<path d="M1575 1205 c-32 -31 -33 -74 -2 -103 l23 -22 555 0 556 0 21 23 c29
31 28 72 -3 102 l-24 25 -551 0 -551 0 -24 -25z"/>
</g>
</svg>
